<svg xmlns="http://www.w3.org/2000/svg" xmlns:xlink="http://www.w3.org/1999/xlink" viewBox="0 0 1073 741.98"><defs><linearGradient id="a" x1="713.04" y1="-80.41" x2="713.04" y2="448.64" gradientTransform="matrix(1, -0.02, -0.02, -1, -55.03, 674.19)" gradientUnits="userSpaceOnUse"><stop offset="0" stop-color="gray" stop-opacity="0.25"/><stop offset="0.54" stop-color="gray" stop-opacity="0.12"/><stop offset="1" stop-color="gray" stop-opacity="0.1"/></linearGradient></defs><path d="M204,200S335.27,337,380,419.55s157.53,68.5,157.53,68.5" fill="none" stroke="#5d596a" stroke-miterlimit="10" stroke-width="3" opacity="0.5" style="isolation:isolate"/><path d="M801.5,717.57c-1.21-5.16-4.51-7-11.78-6.12-7.9,1-15.79,1.93-25.45-4.87-5.12-3.6-9.1-6.78-11.73-9l.43-.11S733.4,673,734.65,658.88s-9.1-50.52-9.1-50.52-.56-23.79-6-37.6a60.83,60.83,0,0,1-3.3-11.21c-3.22-17.42-12.92-63.47-28.64-83.77l-1-40.59v-1.56l.41.41a18.52,18.52,0,0,0,3.5-5.36c4.61,2.37,14.55,7.28,19.93,8.33,7.16,1.39,16,7.43,16,7.43s20.35,23.72,35.94,13.21-29.15-27.42-29.15-27.42S718,422,711.62,419.81c-4.52-1.55-13.91-7.68-19-11.13-.09-.55-.19-1.12-.3-1.69-2.94-15.22-7.24-21-5.46-30.39a34.94,34.94,0,0,1,2.21-7c6-14.19-19-33.9-19-33.9s-17-14.43-10.82-22.38c0,0,9.48-1,1.38-8.62-1.39-1.31-2.83-2.52-4.26-3.64.06-.21.12-.41.19-.62a44,44,0,0,1,7.78-14.3c.54-.67,1.12-1.33,1.73-2a30.53,30.53,0,0,0,22.67-30.06,30.06,30.06,0,0,0-8.18-19.92,8,8,0,0,0,2.6-6.82c.82-9.9-19-19.9-27.35-18.44-4.73.83-9,3.38-13.74,4.25-4.91.9-10-.08-15,0a36.4,36.4,0,0,0-18.89,5.52A9.6,9.6,0,0,0,604.7,222a12.6,12.6,0,0,0-1,5.14c-1.4,18.21-14.58,33.36-28.58,45.33a18.92,18.92,0,0,0-4.74,5.15c-1.42,2.68-1.39,5.85-1.41,8.87-.22,30.18-10.92,61.88-35.2,80.28.38.24.76.47,1.16.68-.37.29-.74.6-1.12.88,7.89,5.13,19.75,2.63,25-5a74,74,0,0,1-10,23.49l1-.05c-.33.54-.65,1.08-1,1.61,10.82-.23,18.79-9.66,25.2-18.26.07.83.12,1.67.15,2.5A50.39,50.39,0,0,1,566.83,399l1-.09c-.31.56-.65,1.11-1,1.66,1.59-.13,3.19-.3,4.78-.49-6.38,13-16.39,36.7-16.39,36.7L551.5,446a42.26,42.26,0,0,1-8.63,13.31c-4,4.23-9.16,9.37-11.35,10.74-3.9,2.43-13.46,33.88,3.84,28.79s23.86-29.44,23.86-29.44a23.54,23.54,0,0,1,4.49-11,29.53,29.53,0,0,0,3.28-5.89,317,317,0,0,1,16.11-30.85,107.65,107.65,0,0,0,8.63-17.78,52,52,0,0,1,5.09-10,56.69,56.69,0,0,0,11-6.13,29.27,29.27,0,0,0,7.43-7.5,141.69,141.69,0,0,0,4.47,14.53c4.2,11.36,11.87,37.66.76,55.25-10.19,16.14-10.41,23.95-9.65,27.17a2.16,2.16,0,0,1-.15.52,29.24,29.24,0,0,0,2.55,21.42A27.48,27.48,0,0,1,616.36,511v1.19a26.69,26.69,0,0,1-1.08,8.14c-2.17,7.36-6.69,23.58-8.2,35.33-2,15.66-15.11,30.79-15.11,30.79S557.22,624,544,668c0,0-7.47,18.91-12.92,22.94,0,0-10.37,6.17-12.1,18,0,.32-.09.64-.12,1l-2.25,5.52S535.9,726,539.86,725.88l2.26-4.74,20.15,15.14,30.07-.7a9.38,9.38,0,0,0,2.17-2c1.44-1.88,2.29-4.82-2.27-7.88a10.94,10.94,0,0,0-7.66-1.61c-3.87.57-11.27-.72-18.2-15.19l-3.82-7.12.49.17s-6.59-10.77,6.54-25.13,32-52.26,32-52.26,25.64-20.89,30.08-34.27c0,0,17.1-28.87,27-46,1.65,3.58,3,6.29,3,6.29S682.11,578.2,685,599.21,707.24,672,715.5,685.86s8.37,19.32,8.37,19.32-5.12,13.12-1.91,23.9l.1.34.15,6.24,23,.24-.07-3.12,29.32.87s28.31-8.47,27.37-14.69C801.72,718.47,801.61,718,801.5,717.57Z" fill="url(#a)"/><path d="M673.58,284.59a46.15,46.15,0,0,0-9.56,8.9,43.23,43.23,0,0,0-7.52,14,38.55,38.55,0,0,0-2,12.74l-14.85-12.67-19,4.28A60.23,60.23,0,0,0,630.82,299a64.46,64.46,0,0,0,6-13.47,50.65,50.65,0,0,0,2.09-9.34S693.93,270.33,673.58,284.59Z" fill="#efb4b6"/><path d="M596.62,732.46a9.27,9.27,0,0,1-2.1,2l-29.09.68-19.49-14.86-2.19,4.65c-3.83.09-22.45-10.2-22.45-10.2l2.17-5.41a7.53,7.53,0,0,1,.12-1c1.67-11.66,11.7-17.7,11.7-17.7l3.79-1.62,23.11,5.59,7.21,13.62c6.71,14.2,13.86,15.47,17.61,14.91a10.42,10.42,0,0,1,7.41,1.58C598.84,727.73,598,730.62,596.62,732.46Z" fill="#c17174"/><path d="M797.09,718.22c.91,6.11-26.47,14.41-26.47,14.41l-28.36-.87.07,3.06-22.21-.25-.14-6.12-.1-.33c-3.1-10.58,1.84-23.45,1.84-23.45l2.21-3.88L746,694.15a148.93,148.93,0,0,0,14.83,11.91c9.35,6.67,17,5.73,24.62,4.78,7-.87,10.23.95,11.4,6C796.93,717.28,797,717.74,797.09,718.22Z" fill="#c17174"/><path d="M664.91,535.22c-.73,1.56-3.13,5.89-6.32,11.52-9.52,16.82-26.09,45.14-26.09,45.14-4.25,13.1-29,33.62-29,33.62s-18.27,37.19-31,51.27-6.31,24.65-6.31,24.65L535.3,690.66c5.27-4,12.49-22.5,12.49-22.5,12.77-43.19,46.37-80,46.37-80s12.67-14.85,14.61-30.21c1.45-11.53,5.82-27.44,7.92-34.66a26.38,26.38,0,0,0,1-8v-1.17a27.31,27.31,0,0,0-3-11.68,29,29,0,0,1-2.48-21,24.17,24.17,0,0,1,3-7.1l7.55-2.2,26.74-7.78s1.65,5.81,3.88,14.12C658.55,497.87,667,530.88,664.91,535.22Z" fill="#5d596a"/><path d="M664.91,535.22c-.73,1.56-3.13,5.89-6.32,11.52-9.52,16.82-26.09,45.14-26.09,45.14-4.25,13.1-29,33.62-29,33.62s-18.27,37.19-31,51.27-6.31,24.65-6.31,24.65L535.3,690.66c5.27-4,12.49-22.5,12.49-22.5,12.77-43.19,46.37-80,46.37-80s12.67-14.85,14.61-30.21c1.45-11.53,5.82-27.44,7.92-34.66a26.38,26.38,0,0,0,1-8v-1.17a27.31,27.31,0,0,0-3-11.68,29,29,0,0,1-2.48-21,24.17,24.17,0,0,1,3-7.1l7.55-2.2,26.74-7.78s1.65,5.81,3.88,14.12C658.55,497.87,667,530.88,664.91,535.22Z" opacity="0.1" style="isolation:isolate"/><path d="M749.88,697.12l-28.16,7.55s-.13-5.36-8.1-19-26.78-64.47-29.56-85.08-22.56-47.68-22.56-47.68-1.3-2.66-2.9-6.17c-1.48-3.25-3.2-7.22-4.38-10.5-2.46-6.83-13.41-16.53-13.41-16.53-20-11.12-24-24.43-24.23-32.76a23.59,23.59,0,0,1,1.07-8.05l5.14-6.74,9.71-12.76,32.87-35.23,20,4.13,1.2,51.28c15.21,19.92,24.61,65.1,27.73,82.2a60.23,60.23,0,0,0,3.2,11c5.27,13.55,5.82,36.89,5.82,36.89s10,35.76,8.82,49.57S749.88,697.12,749.88,697.12Z" fill="#5d596a"/><path d="M688,411.38s15.58,11.12,21.75,13.28,20.92,10.23,20.92,10.23,43.28,16.6,28.2,26.91-34.77-13-34.77-13-8.56-5.93-15.49-7.3S687,432.05,687,432.05Z" fill="#efb4b6"/><path d="M673.58,284.59a46.15,46.15,0,0,0-9.56,8.9,30.24,30.24,0,0,1-5.53.64c-8.42.2-12.78-9-18.34-14.5,1.75-5.56-1.23-3.42-1.23-3.42S693.93,270.33,673.58,284.59Z" opacity="0.1" style="isolation:isolate"/><circle cx="657.75" cy="262.77" r="29.86" transform="translate(-5.97 15.45) rotate(-1.34)" fill="#efb4b6"/><path d="M654.5,320.27,639.65,307.6l-19,4.28A59.6,59.6,0,0,0,630.82,299H631a25.53,25.53,0,0,1,18.49,3.53,75.63,75.63,0,0,1,7.06,5A38.66,38.66,0,0,0,654.5,320.27Z" opacity="0.1" style="isolation:isolate"/><path d="M685.37,428.29l.27,11.45c-2.31-2.31-13.79-13.22-10.66,2.58,3.47,17.53-16.9,30.26-16.9,30.26a74.44,74.44,0,0,1-4.74,5.89C637.18,496.38,622.86,491,616.57,487a22,22,0,0,1-3.4-2.59,5.42,5.42,0,0,1-1-2.9,24.17,24.17,0,0,1,3-7.1l7.55-2.2,9.78-12.79,32.87-35.23Z" opacity="0.1" style="isolation:isolate"/><path d="M686,438.61s-14.53-15.36-11,2.17S658.05,471,658.05,471c-23.74,32.72-44.91,11.77-44.91,11.77s-5.5-6,8.52-28.54c10.74-17.26,3.32-43.06-.75-54.21a139.51,139.51,0,0,1-4.41-14.7l-1-4L613.18,372a100.61,100.61,0,0,1-2.5-33.43,96.26,96.26,0,0,1,4.66-22c1.54-4.56,3.27-8.48,5.13-10.82a17.39,17.39,0,0,1,10.49-6,25.52,25.52,0,0,1,18.54,3.57,69.57,69.57,0,0,1,11,8.4c7.83,7.47-1.33,8.46-1.33,8.46-5.94,7.8,10.47,22,10.47,22S693.83,361.5,688,375.43s-.33,18.39,3.16,36.69S686,438.61,686,438.61Z" fill="#d1d3d4"/><path d="M655.78,219.24c-4.58.82-8.72,3.31-13.29,4.16-4.75.88-9.63-.08-14.47,0a34.9,34.9,0,0,0-18.27,5.41,9.38,9.38,0,0,0-3.4,3.22,12.27,12.27,0,0,0-1,5c-1.35,17.87-14.09,32.73-27.63,44.46a18.39,18.39,0,0,0-4.59,5c-1.38,2.63-1.34,5.74-1.36,8.71-.2,29.61-10.54,60.71-34,78.76,7.92,5.23,20,2.39,24.76-5.82a72.9,72.9,0,0,1-10.14,25.46c10.46-.22,18.17-9.48,24.37-17.91a49.94,49.94,0,0,1-7,29.92c14-1.21,28.3-4.23,39.62-12.51,5.18-3.79,9.89-9.31,9.78-15.73-.06-3.68-1.7-7.11-2.87-10.6-3-9.08-2.32-20.53,5.23-26.42a28.35,28.35,0,0,0,4-3.16c1.73-1.94,2.34-4.61,2.69-7.19a51.38,51.38,0,0,0-.94-18.82,13.9,13.9,0,0,1-.61-4c.17-2.83,2.3-5.2,4.72-6.66s5.18-2.26,7.75-3.47A26.59,26.59,0,0,0,654,273.55c0-2.87-.38-6.07,1.44-8.28,2.69-3.28,8.28-2.16,11.5-4.91,3-2.61,2.71-7.47,4.84-10.88,1.75-2.8,5-4.29,7.37-6.54C691.07,232,665.39,217.53,655.78,219.24Z" opacity="0.1" style="isolation:isolate"/><path d="M653.26,332.36v.19L634.4,358.16l-11.56,15.69s-3.15,3-7.36,7.51l-2.3-9.38a100.61,100.61,0,0,1-2.5-33.43c4.37-8.72,9.07-14.56,13.47-18.49a17.51,17.51,0,0,1,29.11,12.3Z" opacity="0.1" style="isolation:isolate"/><path d="M655.74,217.71c-4.58.82-8.72,3.31-13.29,4.16-4.75.88-9.63-.08-14.47,0a34.9,34.9,0,0,0-18.27,5.41,9.38,9.38,0,0,0-3.4,3.22,12.27,12.27,0,0,0-1,5C604,253.37,591.22,268.23,577.68,280a18.39,18.39,0,0,0-4.59,5c-1.38,2.63-1.34,5.74-1.36,8.71-.2,29.61-10.54,60.71-34,78.76,7.92,5.23,20,2.39,24.76-5.82a72.9,72.9,0,0,1-10.14,25.46c10.46-.22,18.17-9.48,24.37-17.91a49.94,49.94,0,0,1-7,29.92c14-1.21,28.3-4.23,39.62-12.51,5.18-3.79,9.89-9.31,9.78-15.73-.06-3.68-1.7-7.11-2.87-10.6-3-9.08-2.32-20.53,5.23-26.42a28.94,28.94,0,0,0,4-3.16c1.73-1.94,2.34-4.61,2.69-7.19a51.38,51.38,0,0,0-.94-18.82,13.9,13.9,0,0,1-.61-4c.17-2.83,2.3-5.2,4.72-6.66s5.18-2.26,7.75-3.47A26.59,26.59,0,0,0,654,272c0-2.87-.38-6.07,1.44-8.28,2.69-3.28,8.28-2.16,11.5-4.91,3.05-2.61,2.71-7.47,4.84-10.88,1.75-2.8,5-4.29,7.37-6.54C691,230.41,665.35,216,655.74,217.71Z" fill="#c17174"/><path d="M651.69,330.86v.19l-18.87,25.61-11.56,15.69S599.5,392.78,593.79,409a106.51,106.51,0,0,1-8.34,17.44,309.6,309.6,0,0,0-15.57,30.26,28.92,28.92,0,0,1-3.17,5.77,23.32,23.32,0,0,0-4.34,10.82s-6.33,23.89-23.06,28.88-7.5-25.86-3.73-28.25c2.12-1.34,7.06-6.38,11-10.53a41.64,41.64,0,0,0,8.34-13.06l3.65-9.11S576,399.44,579,397.07a10.24,10.24,0,0,0,2.2-2.66q3.62-5.9,7.38-11.69c3.31-5.05,8.55-15.15,16.06-35.27.53-1.41,1.06-2.77,1.61-4.07,5.13-12.32,11-20,16.37-24.82a17.51,17.51,0,0,1,29.09,12.3Z" fill="#efb4b6"/><path d="M651.69,330.86v.19l-18.87,25.61L606.2,343.4c5.13-12.32,11-20,16.37-24.82a17.51,17.51,0,0,1,29.12,12.28Z" fill="#bcbec0"/><path d="M628.33,310.52s20.41,8.74,30.38,9.27" opacity="0.1" style="isolation:isolate"/><path d="M797.09,718.22c.91,6.11-26.47,14.41-26.47,14.41l-28.36-.87.07,3.06-22.21-.25-.14-6.12-.1-.33,51,1.06,25.9-12.32A9.33,9.33,0,0,1,797.09,718.22Z" opacity="0.1" style="isolation:isolate"/><path d="M596.62,732.46a9.27,9.27,0,0,1-2.1,2l-29.09.68-19.49-14.86-2.19,4.65c-3.83.09-22.45-10.2-22.45-10.2l2.17-5.41a7.53,7.53,0,0,1,.12-1l22.69,10,19.48,14.09Z" opacity="0.1" style="isolation:isolate"/><path d="M616.5,478.54s10.94-23.23,22.26-30.39" opacity="0.1" style="isolation:isolate"/><path d="M660,374.89s6.41,11.95,25.83,7.36" opacity="0.1" style="isolation:isolate"/><path d="M840,632.06s-67.63,40.8,57,103.62c0,0,27.46-51-2.9-92.57A40.94,40.94,0,0,0,841,631.47Z" fill="#a7a9ac"/><path d="M840.76,631.2S898.64,675.48,897,735.68" fill="none" stroke="#535461" stroke-miterlimit="10"/><path d="M900.29,736.42s-21.19-72,4-124.91a113.66,113.66,0,0,0,9.19-71.3,190.5,190.5,0,0,0-10.09-33.46" fill="none" stroke="#535461" stroke-miterlimit="10" stroke-width="2"/><path d="M919,473.28c0,8.82-16,34.39-16,34.39s-16-25.57-16-34.39a16,16,0,0,1,31.93,0Z" fill="#a7a9ac"/><path d="M945.41,522.13c-4.79,7.4-32.09,20.19-32.09,20.19s.5-30.14,5.29-37.54a16,16,0,0,1,27.94,15.6,15.56,15.56,0,0,1-1.14,1.76Z" fill="#a7a9ac"/><path d="M944.26,605.59c-7.87,4-37.89,1.23-37.89,1.23s15.64-25.77,23.52-29.74a16,16,0,0,1,16.25,27.57,16.34,16.34,0,0,1-1.87.94Z" fill="#a7a9ac"/><path d="M929.17,668.55c-7.09,5.24-37.14,7.61-37.14,7.61s11.06-28,18.15-33.29a16,16,0,0,1,19,25.67Z" fill="#a7a9ac"/><path d="M879.8,544c6.32,6.14,35.79,12.51,35.79,12.51s-7.22-29.27-13.54-35.41A16,16,0,0,0,879.8,544Z" fill="#a7a9ac"/><path d="M863.08,617.88c7.87,4,37.89,1.23,37.89,1.23s-15.64-25.78-23.47-29.75a16,16,0,0,0-16.25,27.57,16.34,16.34,0,0,0,1.87.94Z" fill="#a7a9ac"/><path d="M856.68,691.89c7.09,5.24,37.14,7.61,37.14,7.61s-11.06-28-18.15-33.29a16,16,0,1,0-20.62,24.47,15.4,15.4,0,0,0,1.62,1.2Z" fill="#a7a9ac"/><path d="M919,473.28c0,8.82-16,34.39-16,34.39s-16-25.57-16-34.39a16,16,0,0,1,31.93,0Z" opacity="0.25" style="isolation:isolate"/><path d="M945.41,522.13c-4.79,7.4-32.09,20.19-32.09,20.19s.5-30.14,5.29-37.54a16,16,0,0,1,27.94,15.6,15.56,15.56,0,0,1-1.14,1.76Z" opacity="0.25" style="isolation:isolate"/><path d="M944.26,605.59c-7.87,4-37.89,1.23-37.89,1.23s15.64-25.77,23.52-29.74a16,16,0,0,1,16.25,27.57,16.34,16.34,0,0,1-1.87.94Z" opacity="0.25" style="isolation:isolate"/><path d="M929.17,668.55c-7.09,5.24-37.14,7.61-37.14,7.61s11.06-28,18.15-33.29a16,16,0,0,1,19,25.67Z" opacity="0.25" style="isolation:isolate"/><path d="M879.8,544c6.32,6.14,35.79,12.51,35.79,12.51s-7.22-29.27-13.54-35.41A16,16,0,0,0,879.8,544Z" opacity="0.25" style="isolation:isolate"/><path d="M863.08,617.88c7.87,4,37.89,1.23,37.89,1.23s-15.64-25.78-23.47-29.75a16,16,0,0,0-16.25,27.57,16.34,16.34,0,0,0,1.87.94Z" opacity="0.25" style="isolation:isolate"/><path d="M856.68,691.89c7.09,5.24,37.14,7.61,37.14,7.61s-11.06-28-18.15-33.29a16,16,0,1,0-20.62,24.47,15.4,15.4,0,0,0,1.62,1.2Z" opacity="0.25" style="isolation:isolate"/><path d="M949.33,737.79s-21.19-72,4-124.91a113.66,113.66,0,0,0,9.19-71.3,190.5,190.5,0,0,0-10.09-33.46" fill="none" stroke="#535461" stroke-miterlimit="10" stroke-width="2"/><path d="M968.06,474.65c0,8.82-16,34.39-16,34.39s-16-25.57-16-34.39a16,16,0,0,1,31.93,0Z" fill="#d1d3d4"/><path d="M994.5,523.5c-4.79,7.4-32.09,20.19-32.09,20.19s.5-30.14,5.29-37.54a16,16,0,0,1,27.94,15.6,15.56,15.56,0,0,1-1.14,1.76Z" fill="#d1d3d4"/><path d="M993.3,607c-7.87,4-37.89,1.23-37.89,1.23s15.64-25.77,23.52-29.74A16,16,0,1,1,995.23,606,16.57,16.57,0,0,1,993.3,607Z" fill="#d1d3d4"/><path d="M978.2,669.92c-7.09,5.24-37.14,7.61-37.14,7.61s11.06-28,18.15-33.29a16,16,0,0,1,19,25.67Z" fill="#d1d3d4"/><path d="M928.83,545.39c6.32,6.14,35.79,12.51,35.79,12.51s-7.22-29.27-13.54-35.41a16,16,0,0,0-22.25,22.9Z" fill="#d1d3d4"/><path d="M912.12,619.25c7.87,4,37.89,1.23,37.89,1.23s-15.64-25.78-23.51-29.75a16,16,0,0,0-14.38,28.51Z" fill="#d1d3d4"/><path d="M905.72,693.26c7.09,5.24,37.14,7.61,37.14,7.61s-11.06-28-18.15-33.29a16,16,0,1,0-20.62,24.47,15.4,15.4,0,0,0,1.62,1.2Z" fill="#d1d3d4"/><rect x="455" y="733.95" width="137" height="5" fill="#d1d3d4"/><rect x="639" y="733.95" width="205" height="5" fill="#d1d3d4"/><rect x="893" y="733.95" width="62" height="5" fill="#d1d3d4"/><path d="M973.3,331.81C970.86,213.24,884.59,118,778.5,118c-51.89,0-99,22.8-134,60-72.65,7.6-133.73,60-161.11,132.44C400.27,335.33,339,420.59,339,522c0,121,87.23,219,194.84,219a177,177,0,0,0,89.84-24.63A175.88,175.88,0,0,0,791.3,719a176.81,176.81,0,0,0,86.86,23C985.77,742,1073,644,1073,523,1073,440.84,1032.79,369.3,973.3,331.81Z" fill="#d1d3d4" opacity="0.1" style="isolation:isolate"/><circle cx="127" cy="127" r="127" fill="#d1d3d4"/><path d="M171.8,130.3c4.4-7.6,11.5-7.6,15.9,0l27.4,48.1c4.4,7.6.8,13.8-8,13.8H151.9c-8.7,0-12.3-6.2-8-13.8Zm-53-92.6c4.4-7.6,11.4-7.6,15.8,0l6.1,11L155.1,74a26.28,26.28,0,0,1,0,22.9l-48.3,83.7A25.4,25.4,0,0,1,87,192.2H46.9c-8.8,0-12.4-6.1-8-13.8Z" fill="#fff"/></svg>