<svg xmlns="http://www.w3.org/2000/svg" viewBox="0 0 983.17 479.65"><path d="M292,321.27h-9.83c-2.29,0-4-1.29-5-3.88L235.35,215.7h-165L28.55,317.39a5,5,0,0,1-5.25,3.88H13.93L146.92,0H159ZM231.23,206.11,157.66,27.19q-2.52-6.17-4.8-13.71a95.29,95.29,0,0,1-4.8,13.71L74.48,206.11Z" transform="translate(-2.28)"/><path d="M498.12,96l-96.88,225.3H391.18L294.3,96h8.91a5,5,0,0,1,3.66,1.37,7.15,7.15,0,0,1,1.82,2.74L392.33,295a52,52,0,0,1,2.28,6.52q.92,3.32,1.6,6.51.92-3.19,1.83-6.51a52,52,0,0,1,2.28-6.52L484,100.08a9.35,9.35,0,0,1,2.29-3A5.18,5.18,0,0,1,489.67,96Z" transform="translate(-2.28)"/><path d="M530.36,313.28a10.31,10.31,0,0,1,2.91-7.39,9.63,9.63,0,0,1,7.25-3.05A10.41,10.41,0,0,1,551,313.28a9.61,9.61,0,0,1-3.05,7.25,10.29,10.29,0,0,1-7.38,2.91,9.94,9.94,0,0,1-10.16-10.16Z" transform="translate(-2.28)"/><path d="M605.68,128q16.91-17.35,35.42-26.51t42.27-9.14q17.6,0,30.62,5.6A55.93,55.93,0,0,1,735.58,114a68.47,68.47,0,0,1,12.68,25.48,126.91,126.91,0,0,1,4.12,33.7V321.27h-4.12c-3,0-4.79-1.6-5.25-4.8l-2.29-33.36A243.18,243.18,0,0,1,722,300.48a108.59,108.59,0,0,1-19.88,13.14A104.05,104.05,0,0,1,679.49,322a112.85,112.85,0,0,1-26.74,3,72.71,72.71,0,0,1-21.25-3.2,55.33,55.33,0,0,1-19-10.06,49.84,49.84,0,0,1-13.6-17.7q-5.15-10.86-5.14-26.17a45.54,45.54,0,0,1,8.57-27q8.57-12.1,26.62-20.91T674.69,206q27.64-5.13,65.81-6.05V173.2q0-33.81-14.63-52.55t-43.41-18.74q-17.15,0-29.48,4.91a92.49,92.49,0,0,0-20.56,11,116.51,116.51,0,0,0-13.14,11q-4.92,4.92-7.43,4.91a5.11,5.11,0,0,1-4.11-2.51ZM740.5,208.39q-69,2.3-102,17.14t-33,41.82q0,12.57,4.23,21.7a44,44,0,0,0,27.08,24.11A59.34,59.34,0,0,0,655,316a101.16,101.16,0,0,0,26.73-3.32,100,100,0,0,0,22.39-9,111,111,0,0,0,19.2-13.49q8.91-7.76,17.14-16.45Z" transform="translate(-2.28)"/><path d="M985.44,321.27H974a4,4,0,0,1-3.43-1.48c-.76-1-1.45-1.87-2.05-2.63L893.82,211.59a13,13,0,0,1-2.52,5.26L819.1,317.16c-.77.91-1.57,1.83-2.4,2.74a4.31,4.31,0,0,1-3.32,1.37H802.64l83.18-114.93L805.84,96h11.43a4,4,0,0,1,3.31,1.26c.69.84,1.33,1.64,1.94,2.4l72,101.22c.3-.91.65-1.83,1-2.74a10.82,10.82,0,0,1,1.71-2.74L966,99.85a17.43,17.43,0,0,1,2.17-2.62A4.2,4.2,0,0,1,971.28,96h11l-80,109.45Z" transform="translate(-2.28)"/><path d="M802.64,321.27,721.89,424.21s7,2,13-2,84.21-105,84.21-105Z" transform="translate(-2.28)"/><path d="M149.94,374.33,117.09,479.65H104.3L77.62,399.32c-.25-.79-.48-1.62-.7-2.5s-.46-1.81-.7-2.8c-.25,1-.49,1.92-.74,2.8s-.49,1.71-.73,2.5L47.92,479.65H35.13L2.28,374.33H14.11a5.26,5.26,0,0,1,3.2.95A4.22,4.22,0,0,1,19,377.71l21.76,73.2c.34,1.33.67,2.75,1,4.27s.63,3.13.92,4.85c.34-1.72.7-3.35,1.07-4.89a43.44,43.44,0,0,1,1.21-4.23l24.77-73.2a5.36,5.36,0,0,1,1.73-2.32,4.7,4.7,0,0,1,3.12-1.06h4.12a4.76,4.76,0,0,1,3.08.95,5.94,5.94,0,0,1,1.77,2.43l24.69,73.2c.44,1.28.85,2.65,1.21,4.12s.73,3,1.07,4.63c.25-1.62.51-3.16.81-4.63s.61-2.84,1-4.12l21.83-73.2a4.6,4.6,0,0,1,1.66-2.35,4.81,4.81,0,0,1,3.12-1Z" transform="translate(-2.28)" fill="#2e3192"/><path d="M252.91,479.65h-11a4.77,4.77,0,0,1-3.09-.95,5.92,5.92,0,0,1-1.76-2.43l-9.85-25.43H179.93l-9.85,25.43a5.2,5.2,0,0,1-1.69,2.35,4.71,4.71,0,0,1-3.09,1h-11l42.11-105.32H210.8Zm-29.69-39.1L206.68,397.7c-.49-1.27-1-2.76-1.54-4.45s-1.06-3.49-1.55-5.4a79.49,79.49,0,0,1-3.16,9.92L183.9,440.55Z" transform="translate(-2.28)" fill="#2e3192"/><path d="M334.5,467.67v12H274.74V374.33h14.19v93.34Z" transform="translate(-2.28)" fill="#2e3192"/><path d="M417.92,467.67v12H358.16V374.33h14.19v93.34Z" transform="translate(-2.28)" fill="#2e3192"/><path d="M506.56,468l-.08,11.61h-64.9V374.33h64.9v11.61H455.84v35h41V432.1h-41V468Z" transform="translate(-2.28)" fill="#2e3192"/><path d="M605.63,386.31h-34.1v93.34H557.34V386.31H523.17v-12h82.46Z" transform="translate(-2.28)" fill="#2e3192"/></svg>