<svg xmlns="http://www.w3.org/2000/svg" viewBox="0 0 448 448"><path d="M400,64H368V48A48,48,0,0,0,320,0H48A48,48,0,0,0,0,48V352a48,48,0,0,0,48,48,16,16,0,0,0,0-32,16,16,0,0,1-16-16V93.12A48,48,0,0,0,48,96H400a16,16,0,0,1,16,16h0v16H304a48,48,0,0,0,0,96H416V352a16,16,0,0,1-16,16H304a16,16,0,0,0,0,32h96a48,48,0,0,0,48-48V112A48,48,0,0,0,400,64ZM32,48A16,16,0,0,1,48,32H320a16,16,0,0,1,16,16V64H48A16,16,0,0,1,32,48ZM304,192a16,16,0,0,1,0-32H416v32Z" fill="#fff"/><path d="M176,224A112,112,0,1,0,288,336,112,112,0,0,0,176,224Zm0,192a80,80,0,1,1,80-80A80,80,0,0,1,176,416Z" fill="#fff"/><path d="M208,320H192V304a16,16,0,0,0-32,0v16H144a16,16,0,0,0,0,32h16v16a16,16,0,0,0,32,0V352h16a16,16,0,0,0,0-32Z" fill="#fff"/></svg>