<svg xmlns="http://www.w3.org/2000/svg" viewBox="0 0 448 427.53"><path d="M400,64H368V48A48,48,0,0,0,320,0H48A48,48,0,0,0,0,48V352a48,48,0,0,0,48,48,16,16,0,0,0,0-32,16,16,0,0,1-16-16V93.12A48,48,0,0,0,48,96H400a16,16,0,0,1,16,16h0v16H304a48,48,0,0,0,0,96H416V352a16,16,0,0,1-16,16H304a16,16,0,0,0,0,32h96a48,48,0,0,0,48-48V112A48,48,0,0,0,400,64ZM32,48A16,16,0,0,1,48,32H320a16,16,0,0,1,16,16V64H48A16,16,0,0,1,32,48ZM304,192a16,16,0,0,1,0-32H416v32Z" fill="#fff"/><path d="M106.17,314.13a40.57,40.57,0,0,1,9.73-3.59,52,52,0,0,1,13.14-1.7,47.43,47.43,0,0,1,16.72,2.74q7.28,2.75,9.36,8.6,3.39,9.84,7.37,22.87T170.43,370q4,13.9,7.74,27.41t6.62,23.91a15.62,15.62,0,0,1-6.8,4.25,32.41,32.41,0,0,1-10.78,1.61,33.23,33.23,0,0,1-7.65-.76,13.49,13.49,0,0,1-5.1-2.27,11,11,0,0,1-3.22-4,33.79,33.79,0,0,1-2.17-5.67l-3.4-13H111.46q-1.51,5.67-3,11.72t-3,11.72a49.86,49.86,0,0,1-5.58,1.61,32.65,32.65,0,0,1-7.08.66q-9.65,0-14.27-3.31a10.63,10.63,0,0,1-4.63-9.17,19.37,19.37,0,0,1,.75-5.29c.51-1.76,1.07-3.84,1.7-6.24q1.32-5.1,3.69-12.66t5.2-16.35q2.84-8.79,6-18.05t6-17.48q2.84-8.22,5.2-14.65T106.17,314.13Zm22.68,24.39q-2.66,7.94-6,17.67t-6,19.75h23.44Q137.73,365.73,135,356t-5-17.48Z" fill="#fff"/><path d="M251.7,422.81a21.22,21.22,0,0,1-7.75,3.4,46.2,46.2,0,0,1-11.53,1.32,38.59,38.59,0,0,1-12.76-1.89q-5.39-1.87-7.47-6-1.69-3.21-4.06-9c-1.58-3.84-3.24-8.13-5-12.85s-3.59-9.8-5.48-15.22-3.68-10.77-5.39-16.06-3.24-10.4-4.63-15.31-2.52-9.26-3.4-13A24.57,24.57,0,0,1,201,331.52a19.78,19.78,0,0,1,10.87,2.74c2.84,1.83,4.94,5.27,6.33,10.3l7.37,28.92q2.08,8.5,4,15.4c1.26,4.61,2.21,8.16,2.84,10.68h.94q3.58-14,7.56-31t7.18-33.46a30.33,30.33,0,0,1,7.28-2.64,34.59,34.59,0,0,1,7.84-1,20.7,20.7,0,0,1,11.16,2.84q4.53,2.83,4.53,9.83a39.85,39.85,0,0,1-1.42,8.78q-1.41,5.77-3.59,13t-5.1,15.41q-2.94,8.13-5.95,15.87t-6,14.46Q254,418.47,251.7,422.81Z" fill="#fff"/></svg>